<?xml version="1.0" encoding="utf-8"?>
<!-- Generator: Adobe Illustrator 16.0.4, SVG Export Plug-In . SVG Version: 6.00 Build 0)  -->
<!DOCTYPE svg PUBLIC "-//W3C//DTD SVG 1.1//EN" "http://www.w3.org/Graphics/SVG/1.1/DTD/svg11.dtd">
<svg version="1.1" id="Layer_1" xmlns="http://www.w3.org/2000/svg" xmlns:xlink="http://www.w3.org/1999/xlink" x="0px" y="0px"
	 width="491.283px" height="142.481px" viewBox="0 0 491.283 142.481" enable-background="new 0 0 491.283 142.481"
	 xml:space="preserve">
<path fill="#FFFFFF" d="M113.625,46.586h-7.569c-0.904,0-1.681,0.26-2.329,0.777c-0.647,0.521-1.1,1.131-1.361,1.846L64.703,141.22
	h7.568c0.904,0,1.682-0.255,2.329-0.777c0.648-0.512,1.101-1.131,1.362-1.84L113.625,46.586z"/>
<path fill="#FFFFFF" d="M75.644,59.932h-7.568c-0.904,0-1.682,0.26-2.329,0.777c-0.648,0.518-1.101,1.131-1.362,1.846L32.352,141.22
	h7.57c0.903,0,1.681-0.255,2.328-0.777c0.647-0.512,1.1-1.131,1.361-1.84L75.644,59.932z"/>
<path fill="#FFFFFF" d="M37.662,73.69h-7.569c-0.904,0-1.681,0.252-2.329,0.777c-0.646,0.512-1.1,1.131-1.362,1.838L0,141.22h7.569
	c0.903,0,1.682-0.255,2.329-0.777c0.647-0.512,1.1-1.131,1.361-1.84L37.662,73.69z"/>
<path fill="#FFFFFF" d="M219.342,141.22h-7.667c-0.907,0-1.649-0.246-2.23-0.728c-0.584-0.486-1.035-1.119-1.357-1.896
	l-16.21-39.892h-67.452l-16.109,39.892c-0.262,0.715-0.714,1.325-1.361,1.846c-0.647,0.518-1.426,0.777-2.329,0.777h-7.569
	l56.19-137.341h9.9L219.342,141.22z M127.432,91.331h61.534l-28.049-69.398c-0.455-1.1-0.91-2.344-1.358-3.734
	c-0.455-1.391-0.91-2.863-1.357-4.418c-0.455,1.555-0.91,3.027-1.358,4.418c-0.455,1.391-0.91,2.666-1.362,3.836L127.432,91.331z"/>
<path fill="#FFFFFF" d="M248.36,0v141.22h-9.219V0H248.36z"/>
<path fill="#FFFFFF" d="M298.53,11.354c0,1.17-0.239,2.25-0.727,3.254c-0.487,1.006-1.112,1.891-1.89,2.668
	c-0.777,0.775-1.688,1.389-2.718,1.844c-1.035,0.455-2.136,0.684-3.305,0.684c-1.163,0-2.263-0.229-3.299-0.684
	s-1.939-1.068-2.717-1.844c-0.777-0.777-1.391-1.662-1.846-2.668c-0.448-1.004-0.677-2.084-0.677-3.254
	c0-1.162,0.229-2.281,0.677-3.348c0.455-1.068,1.067-1.992,1.846-2.768c0.776-0.777,1.681-1.391,2.717-1.846
	c1.036-0.449,2.136-0.676,3.299-0.676c1.169,0,2.27,0.227,3.305,0.676c1.029,0.455,1.939,1.068,2.718,1.846
	c0.776,0.775,1.401,1.699,1.89,2.768C298.291,9.073,298.53,10.192,298.53,11.354z M294.455,44.647v96.573h-9.22V44.647H294.455z"/>
<path fill="#FFFFFF" d="M392.188,57.557c-0.321,0.322-0.626,0.594-0.923,0.82c-0.291,0.229-0.695,0.342-1.213,0.342
	c-0.645,0-1.536-0.436-2.667-1.309c-1.131-0.877-2.635-1.832-4.512-2.867c-1.876-1.031-4.223-1.984-7.04-2.863
	c-2.812-0.871-6.229-1.309-10.238-1.309c-5.566,0-10.501,0.986-14.804,2.957c-4.305,1.979-7.924,4.809-10.868,8.492
	c-2.944,3.691-5.194,8.16-6.749,13.398c-1.548,5.244-2.325,11.127-2.325,17.666c0,6.793,0.79,12.809,2.376,18.053
	c1.586,5.24,3.836,9.656,6.748,13.246c2.907,3.596,6.433,6.324,10.578,8.201c4.139,1.877,8.732,2.818,13.78,2.818
	c4.654,0,8.558-0.551,11.697-1.656c3.135-1.1,5.727-2.293,7.768-3.588c2.035-1.297,3.651-2.49,4.853-3.59
	c1.194-1.1,2.148-1.648,2.862-1.648c0.841,0,1.485,0.322,1.94,0.967l2.521,3.107c-1.484,1.941-3.361,3.754-5.623,5.436
	c-2.269,1.681-4.821,3.14-7.671,4.365c-2.85,1.232-5.941,2.186-9.271,2.863c-3.333,0.682-6.812,1.023-10.435,1.023
	c-6.146,0-11.759-1.119-16.839-3.351c-5.08-2.235-9.446-5.473-13.104-9.704c-3.651-4.24-6.502-9.435-8.536-15.582
	c-2.041-6.144-3.059-13.132-3.059-20.962c0-7.379,0.974-14.108,2.912-20.188c1.94-6.085,4.771-11.323,8.492-15.729
	c3.716-4.398,8.278-7.811,13.681-10.236c5.403-2.425,11.602-3.641,18.589-3.641c6.273,0,11.855,1.006,16.748,3.008
	c4.885,2.01,9.138,4.727,12.757,8.152L392.188,57.557z"/>
<path fill="#FFFFFF" d="M453.335,43.092c5.434,0,10.464,0.936,15.095,2.812c4.626,1.877,8.638,4.613,12.031,8.201
	c3.398,3.596,6.053,8.006,7.961,13.252c1.907,5.238,2.861,11.26,2.861,18.053c0,1.422-0.215,2.396-0.632,2.911
	c-0.417,0.521-1.08,0.777-1.982,0.777h-69.689v1.84c0,7.248,0.84,13.623,2.521,19.119c1.681,5.506,4.075,10.111,7.185,13.834
	c3.103,3.721,6.855,6.521,11.254,8.396c4.404,1.877,9.319,2.812,14.754,2.812c4.854,0,9.062-0.531,12.618-1.599
	c3.558-1.067,6.553-2.271,8.979-3.597c2.427-1.319,4.348-2.52,5.774-3.59c1.422-1.067,2.458-1.598,3.104-1.598
	c0.841,0,1.49,0.322,1.938,0.967l2.528,3.107c-1.556,1.941-3.608,3.754-6.167,5.436c-2.553,1.681-5.402,3.121-8.537,4.314
	c-3.141,1.201-6.502,2.154-10.097,2.869c-3.59,0.707-7.197,1.068-10.817,1.068c-6.604,0-12.619-1.15-18.053-3.451
	c-5.44-2.293-10.104-5.643-13.996-10.039c-3.893-4.404-6.899-9.789-9.022-16.166c-2.13-6.369-3.19-13.666-3.19-21.887
	c0-6.92,0.985-13.308,2.964-19.165c1.971-5.859,4.821-10.908,8.543-15.143c3.715-4.238,8.276-7.557,13.68-9.951
	C440.344,44.293,446.479,43.092,453.335,43.092z M453.479,49.981c-4.979,0-9.435,0.777-13.377,2.332
	c-3.943,1.553-7.349,3.783-10.224,6.697c-2.875,2.912-5.2,6.406-6.977,10.484c-1.782,4.073-2.957,8.637-3.539,13.687h63.572
	c0-5.183-0.714-9.818-2.136-13.933c-1.422-4.109-3.418-7.584-6.003-10.436c-2.584-2.842-5.688-5.029-9.308-6.551
	C461.878,50.745,457.87,49.981,453.479,49.981z"/>
</svg>
